<svg width="134" height="136" viewBox="0 0 134 136" fill="none" xmlns="http://www.w3.org/2000/svg">
<path d="M93.1067 80.7024C109.432 57.6496 103.972 25.7282 80.9192 9.40677C57.8664 -6.91466 25.9451 -1.45859 9.62363 21.5981C-6.69781 44.6509 -1.24173 76.5684 21.815 92.8898C38.269 104.539 60.0231 105.436 77.378 95.1869L115.087 132.67C119.159 136.956 125.933 137.127 130.219 133.056C134.505 128.988 134.677 122.214 130.609 117.928C130.48 117.791 130.355 117.666 130.219 117.538L93.1067 80.7024ZM51.334 84.1968C33.1171 84.2007 18.3479 69.4431 18.3362 51.2263C18.3323 33.0095 33.0898 18.2402 51.3106 18.2324C69.504 18.2246 84.2654 32.9588 84.3005 51.1522C84.3317 69.3729 69.582 84.1656 51.3574 84.1968C51.3496 84.1968 51.3456 84.1968 51.334 84.1968Z" fill="#47525D"/>
</svg>